<?xml version="1.0" encoding="UTF-8"?><svg id="_圖層_2" xmlns="http://www.w3.org/2000/svg" viewBox="0 0 245.03 138.14"><defs><style>.cls-1,.cls-2,.cls-3,.cls-4,.cls-5{fill:#e3a58b;}.cls-1,.cls-6,.cls-7,.cls-8,.cls-9{font-size:16px;}.cls-1,.cls-6,.cls-9{font-family:MicrosoftJhengHeiBold, 'Microsoft JhengHei';}.cls-10,.cls-11,.cls-8,.cls-9{fill:#65715b;}.cls-10,.cls-4,.cls-12{font-family:MicrosoftJhengHeiRegular, 'Microsoft JhengHei';font-size:12px;}.cls-11,.cls-2,.cls-3,.cls-13,.cls-5,.cls-7,.cls-8{font-family:MicrosoftJhengHeiLight, 'Microsoft JhengHei';}.cls-11,.cls-2,.cls-13{font-size:8px;}.cls-3{font-size:1px;}.cls-13,.cls-6,.cls-7,.cls-12{fill:#db8164;}.cls-5{font-size:5px;}</style></defs><g id="_圖層_1-2"><g><text class="cls-12" transform="translate(110.87 30.9)"><tspan x="0" y="0">樂觀</tspan></text><text class="cls-4" transform="translate(151.05 81.85)"><tspan x="0" y="0">細心</tspan></text><text class="cls-9" transform="translate(81.03 62.95)"><tspan x="0" y="0">邏輯思考</tspan></text><text class="cls-2" transform="translate(127.66 15.93)"><tspan x="0" y="0">合群</tspan></text><text class="cls-8" transform="translate(35.69 50.39)"><tspan x="0" y="0">領導力</tspan></text><text class="cls-2" transform="translate(104.17 7.12)"><tspan x="0" y="0">同理心</tspan></text><text class="cls-6" transform="translate(33.71 87.92)"><tspan x="0" y="0">企劃力</tspan></text><text class="cls-1" transform="translate(124.53 101.51)"><tspan x="0" y="0">團隊合作</tspan></text><text class="cls-13" transform="translate(.84 119.33)"><tspan x="0" y="0">向心力</tspan></text><text class="cls-4" transform="translate(185.97 68.4)"><tspan x="0" y="0">謹慎</tspan></text><text class="cls-4" transform="translate(0 81.13)"><tspan x="0" y="0">專注</tspan></text><text class="cls-7" transform="translate(179.72 49.64)"><tspan x="0" y="0">創意</tspan></text><text class="cls-10" transform="translate(82.05 22.01)"><tspan x="0" y="0">創新</tspan></text><text class="cls-10" transform="translate(209.03 114.73)"><tspan x="0" y="0">有條理</tspan></text><text class="cls-2" transform="translate(155.59 64.67)"><tspan x="0" y="0">有精神</tspan></text><text class="cls-2" transform="translate(97.34 92.55)"><tspan x="0" y="0">活潑</tspan></text><text class="cls-10" transform="translate(158.34 118.24)"><tspan x="0" y="0">洞察力</tspan></text><text class="cls-3" transform="translate(150.98 12.88)"><tspan x="0" y="0">可愛</tspan></text><text class="cls-5" transform="translate(200.85 126.25)"><tspan x="0" y="0">迷因力</tspan></text><text class="cls-12" transform="translate(195.51 85.51)"><tspan x="0" y="0">資料蒐集</tspan></text><text class="cls-12" transform="translate(17.01 68.39)"><tspan x="0" y="0">數據分析</tspan></text><text class="cls-4" transform="translate(93.58 81.13)"><tspan x="0" y="0">文案發想</tspan></text><text class="cls-2" transform="translate(1.81 97.12)"><tspan x="0" y="0">開朗</tspan></text><text class="cls-5" transform="translate(203.84 101.28)"><tspan x="0" y="0">正面的</tspan></text><text class="cls-4" transform="translate(137.38 44.12)"><tspan x="0" y="0">積極的</tspan></text><text class="cls-11" transform="translate(151.05 28.66)"><tspan x="0" y="0">友善的</tspan></text><text class="cls-5" transform="translate(23.24 102.5)"><tspan x="0" y="0">動感的</tspan></text><text class="cls-5" transform="translate(82.05 30.9)"><tspan x="0" y="0">生動的</tspan></text><text class="cls-5" transform="translate(54.75 29.13)"><tspan x="0" y="0">戲劇性的</tspan></text><text class="cls-13" transform="translate(64.27 9.31)"><tspan x="0" y="0">耐心的</tspan></text><text class="cls-7" transform="translate(104.11 133.99)"><tspan x="0" y="0">樂於學習</tspan></text><text class="cls-7" transform="translate(34.61 126.25)"><tspan x="0" y="0">樂於助人</tspan></text><text class="cls-12" transform="translate(84.51 43.43)"><tspan x="0" y="0">面對挑戰</tspan></text><text class="cls-13" transform="translate(104.11 111.61)"><tspan x="0" y="0">提升自我</tspan></text><text class="cls-10" transform="translate(54.04 104.71)"><tspan x="0" y="0">積極溝通</tspan></text></g></g></svg>